<svg width="696" height="290" viewBox="0 0 696 290" fill="none" xmlns="http://www.w3.org/2000/svg">
<path d="M116.933 289.8V230.2H0.132813V182.6L134.133 10.6H170.533V182.2H205.733V230.2H170.533V289.8H116.933ZM53.7328 182.2H122.933V91.8L53.7328 182.2ZM607.152 289.8V230.2H490.352V182.6L624.352 10.6H660.752V182.2H695.952V230.2H660.752V289.8H607.152ZM543.952 182.2H613.152V91.8L543.952 182.2Z" fill="#E76E26"/>
<path d="M454.648 121.8C454.648 145.267 450.115 166.2 441.048 184.6C432.248 202.733 419.982 217 404.248 227.4C388.782 237.8 371.182 243 351.448 243C331.715 243 313.982 237.8 298.248 227.4C282.782 217 270.515 202.733 261.448 184.6C252.648 166.2 248.248 145.267 248.248 121.8C248.248 98.3333 252.648 77.5333 261.448 59.4C270.515 41 282.782 26.6 298.248 16.2C313.982 5.53333 331.715 0.199999 351.448 0.199999C371.182 0.199999 388.782 5.53333 404.248 16.2C419.982 26.6 432.248 41 441.048 59.4C450.115 77.5333 454.648 98.3333 454.648 121.8ZM400.648 121.8C400.648 107.4 398.515 94.8667 394.248 84.2C390.248 73.2667 384.515 64.7333 377.048 58.6C369.582 52.4667 361.048 49.4 351.448 49.4C341.582 49.4 332.915 52.4667 325.448 58.6C317.982 64.7333 312.115 73.2667 307.848 84.2C303.848 94.8667 301.848 107.4 301.848 121.8C301.848 136.2 303.848 148.733 307.848 159.4C312.115 170.067 317.982 178.467 325.448 184.6C332.915 190.733 341.582 193.8 351.448 193.8C361.048 193.8 369.448 190.733 376.648 184.6C384.115 178.467 389.982 170.067 394.248 159.4C398.515 148.467 400.648 135.933 400.648 121.8Z" fill="#020329"/>
</svg>
