<svg width="41" height="41" viewBox="0 0 41 41" fill="none" xmlns="http://www.w3.org/2000/svg">
<path fill-rule="evenodd" clip-rule="evenodd" d="M4.71907 6.12163C4.72307 6.12163 4.62307 6.22563 4.49707 6.34963C4.01307 6.81963 3.01107 7.79763 3.00097 9.84363C2.98507 12.7056 4.86707 18.0196 13.9291 27.0796C22.9491 36.0956 28.2551 37.9996 31.1231 37.9996H31.1651C33.2111 37.9896 34.1871 36.9856 34.6591 36.5036C34.8031 36.3556 34.9191 36.2476 35.0011 36.1796C36.9931 34.1756 38.0131 32.6836 38.0031 31.7276C37.9891 30.7516 36.7751 29.5976 35.0971 28.0016C34.5631 27.4936 33.9831 26.9416 33.3711 26.3296C31.7851 24.7476 30.9991 25.0176 29.2711 25.6256C26.8811 26.4636 23.6011 27.6036 18.5051 22.5056C13.4011 17.4056 14.5431 14.1296 15.3791 11.7396C15.9831 10.0116 16.2591 9.22363 14.6711 7.63563C14.0491 7.01563 13.4911 6.42763 12.9771 5.88763C11.3911 4.21963 10.2471 3.01363 9.27707 2.99963H9.26107C8.30307 2.99963 6.81507 4.02363 4.70907 6.12963C4.71507 6.12363 4.71707 6.12163 4.71907 6.12163ZM31.1251 40.9996C26.1411 40.9996 19.6431 37.0316 11.8091 29.2016C3.94507 21.3396 -0.0289323 14.8216 0.000899127 9.82763C0.0190677 6.52763 1.74907 4.83763 2.39907 4.20363C2.43307 4.16163 2.54907 4.04763 2.58907 4.00763C5.45707 1.13763 7.39107 -0.0223716 9.31507 -0.000678288C11.5491 0.0296284 13.1391 1.70163 15.1511 3.81963C15.6491 4.34363 16.1891 4.91363 16.7911 5.51363C19.7111 8.43363 18.8791 10.8156 18.2111 12.7276C17.4831 14.8136 16.8531 16.6136 20.6251 20.3856C24.4011 24.1576 26.2011 23.5276 28.2791 22.7936C30.1931 22.1256 32.5691 21.2896 35.4931 24.2096C36.0851 24.8016 36.6471 25.3356 37.1651 25.8296C39.2931 27.8516 40.9731 29.4496 41.0014 31.6896C41.0251 33.5996 39.8651 35.5456 37.0011 38.4116L35.7331 37.5516L36.8051 38.5996C36.1711 39.2496 34.4831 40.9816 31.1811 40.9996H31.1251Z" fill="#020329"/>
</svg>
