<svg width="33" height="39" viewBox="0 0 33 39" fill="none" xmlns="http://www.w3.org/2000/svg">
<path fill-rule="evenodd" clip-rule="evenodd" d="M16.499 0C25.597 0 32.999 7.458 32.999 16.626C32.999 27.896 20.087 39 16.499 39C12.911 39 -0.000976562 27.896 -0.000976562 16.626C-0.000976562 7.458 7.40102 0 16.499 0ZM16.499 3C9.05502 3 2.99902 9.114 2.99902 16.626C2.99902 26.184 14.247 35.496 16.499 35.992C18.751 35.494 29.999 26.182 29.999 16.626C29.999 9.114 23.943 3 16.499 3ZM16.501 10C20.085 10 23.001 12.916 23.001 16.502C23.001 20.086 20.085 23 16.501 23C12.917 23 10.001 20.086 10.001 16.502C10.001 12.916 12.917 10 16.501 10ZM16.501 13C14.571 13 13.001 14.57 13.001 16.502C13.001 18.432 14.571 20 16.501 20C18.431 20 20.001 18.432 20.001 16.502C20.001 14.57 18.431 13 16.501 13Z" fill="#020329"/>
</svg>
