<svg width="150" height="150" viewBox="0 0 150 150" fill="none" xmlns="http://www.w3.org/2000/svg">
<g clip-path="url(#clip0_275_2348)">
<path d="M147.803 110.449H141.211V100.928C141.211 100.345 140.979 99.7861 140.567 99.374C140.155 98.962 139.596 98.7305 139.014 98.7305H136.816V32.0801C136.816 30.3318 136.122 28.6552 134.886 27.419C133.65 26.1828 131.973 25.4883 130.225 25.4883C128.476 25.4883 126.8 26.1828 125.563 27.419C124.327 28.6552 123.633 30.3318 123.633 32.0801V98.7305H121.436C120.853 98.7305 120.294 98.962 119.882 99.374C119.47 99.7861 119.238 100.345 119.238 100.928V110.449H30.7617V100.928C30.7617 100.345 30.5302 99.7861 30.1182 99.374C29.7061 98.962 29.1472 98.7305 28.5645 98.7305H26.3672V32.0801C26.3672 30.3318 25.6727 28.6552 24.4365 27.419C23.2003 26.1828 21.5236 25.4883 19.7754 25.4883C18.0271 25.4883 16.3505 26.1828 15.1143 27.419C13.8781 28.6552 13.1836 30.3318 13.1836 32.0801V98.7305H10.9863C10.4036 98.7305 9.84469 98.962 9.43263 99.374C9.02056 99.7861 8.78906 100.345 8.78906 100.928V110.449H2.19727C1.61451 110.449 1.05563 110.681 0.643564 111.093C0.231497 111.505 0 112.064 0 112.646L0 139.014C0 139.596 0.231497 140.155 0.643564 140.567C1.05563 140.979 1.61451 141.211 2.19727 141.211H5.41992V147.803C5.41992 148.385 5.65142 148.944 6.06349 149.356C6.47555 149.769 7.03444 150 7.61719 150H142.383C142.966 150 143.524 149.769 143.937 149.356C144.349 148.944 144.58 148.385 144.58 147.803V141.211H147.803C148.385 141.211 148.944 140.979 149.356 140.567C149.769 140.155 150 139.596 150 139.014V112.646C150 112.064 149.769 111.505 149.356 111.093C148.944 110.681 148.385 110.449 147.803 110.449ZM128.027 32.0801C128.027 31.4973 128.259 30.9384 128.671 30.5264C129.083 30.1143 129.642 29.8828 130.225 29.8828C130.807 29.8828 131.366 30.1143 131.778 30.5264C132.19 30.9384 132.422 31.4973 132.422 32.0801V98.7305H128.027V32.0801ZM123.633 103.125H136.816V110.449H123.633V103.125ZM17.5781 32.0801C17.5781 31.4973 17.8096 30.9384 18.2217 30.5264C18.6338 30.1143 19.1926 29.8828 19.7754 29.8828C20.3581 29.8828 20.917 30.1143 21.3291 30.5264C21.7412 30.9384 21.9727 31.4973 21.9727 32.0801V98.7305H17.5781V32.0801ZM13.1836 103.125H26.3672V110.449H13.1836V103.125ZM140.186 145.605H9.81445V141.211H140.186V145.605ZM145.605 136.816H4.39453V114.844H145.605V136.816Z" fill="#E76E26"/>
<path d="M10.9863 132.422H75.4395C76.0222 132.422 76.5811 132.19 76.9932 131.778C77.4052 131.366 77.6367 130.807 77.6367 130.225V121.436C77.6367 120.853 77.4052 120.294 76.9932 119.882C76.5811 119.47 76.0222 119.238 75.4395 119.238H10.9863C10.4036 119.238 9.84469 119.47 9.43263 119.882C9.02056 120.294 8.78906 120.853 8.78906 121.436V130.225C8.78906 130.807 9.02056 131.366 9.43263 131.778C9.84469 132.19 10.4036 132.422 10.9863 132.422ZM13.1836 123.633H73.2422V128.027H13.1836V123.633Z" fill="#E76E26"/>
<path d="M121.436 132.422H139.014C139.596 132.422 140.155 132.19 140.567 131.778C140.979 131.366 141.211 130.807 141.211 130.225V121.436C141.211 120.853 140.979 120.294 140.567 119.882C140.155 119.47 139.596 119.238 139.014 119.238H121.436C120.853 119.238 120.294 119.47 119.882 119.882C119.47 120.294 119.238 120.853 119.238 121.436V130.225C119.238 130.807 119.47 131.366 119.882 131.778C120.294 132.19 120.853 132.422 121.436 132.422ZM123.633 123.633H136.816V128.027H123.633V123.633Z" fill="#E76E26"/>
<path d="M92.1387 132.422H109.717C110.3 132.422 110.858 132.19 111.271 131.778C111.683 131.366 111.914 130.807 111.914 130.225V121.436C111.914 120.853 111.683 120.294 111.271 119.882C110.858 119.47 110.3 119.238 109.717 119.238H92.1387C91.5559 119.238 90.997 119.47 90.585 119.882C90.1729 120.294 89.9414 120.853 89.9414 121.436V130.225C89.9414 130.807 90.1729 131.366 90.585 131.778C90.997 132.19 91.5559 132.422 92.1387 132.422ZM94.3359 123.633H107.52V128.027H94.3359V123.633Z" fill="#E76E26"/>
<path d="M51.5625 41.0156C50.9797 41.0156 50.4209 41.2471 50.0088 41.6592C49.5967 42.0713 49.3652 42.6301 49.3652 43.2129V72.5098C49.3652 73.0925 49.5967 73.6514 50.0088 74.0635C50.4209 74.4755 50.9797 74.707 51.5625 74.707H98.4375C99.0203 74.707 99.5791 74.4755 99.9912 74.0635C100.403 73.6514 100.635 73.0925 100.635 72.5098V43.2129C100.635 42.6301 100.403 42.0713 99.9912 41.6592C99.5791 41.2471 99.0203 41.0156 98.4375 41.0156H91.8457V28.5645C91.8457 24.0967 90.0709 19.8119 86.9117 16.6527C83.7525 13.4936 79.4678 11.7188 75 11.7188C70.5322 11.7188 66.2475 13.4936 63.0883 16.6527C59.9291 19.8119 58.1543 24.0967 58.1543 28.5645V41.0156H51.5625ZM96.2402 70.3125H53.7598V45.4102H96.2402V70.3125ZM62.5488 28.5645C62.5488 25.2622 63.8606 22.0952 66.1957 19.7601C68.5307 17.4251 71.6977 16.1133 75 16.1133C78.3023 16.1133 81.4693 17.4251 83.8043 19.7601C86.1394 22.0952 87.4512 25.2622 87.4512 28.5645V41.0156H62.5488V28.5645Z" fill="#E76E26"/>
<path d="M96.6797 4.39471C98.5597 4.34598 100.43 4.68035 102.177 5.37746C103.923 6.07457 105.51 7.11985 106.84 8.44966C108.169 9.77946 109.215 11.366 109.912 13.1126C110.609 14.8593 110.943 16.7296 110.895 18.6096C110.89 18.8981 110.941 19.1848 111.047 19.4534C111.153 19.7219 111.311 19.9669 111.511 20.1745C111.712 20.3821 111.951 20.5481 112.216 20.6632C112.48 20.7782 112.765 20.8399 113.054 20.8449H113.086C113.663 20.845 114.216 20.6183 114.627 20.2138C115.038 19.8093 115.274 19.2594 115.283 18.6828C115.341 16.2133 114.897 13.7578 113.978 11.4648C113.06 9.17184 111.686 7.08908 109.939 5.34255C108.192 3.59603 106.109 2.22206 103.816 1.30379C101.523 0.385521 99.0671 -0.0579627 96.5977 0.000176227C96.0149 0.0110542 95.4604 0.252984 95.056 0.672743C94.6516 1.0925 94.4305 1.65571 94.4414 2.23846C94.4523 2.82121 94.6942 3.37577 95.114 3.78015C95.5338 4.18452 96.097 4.40559 96.6797 4.39471Z" fill="#E76E26"/>
<path d="M95.7129 12.5624C97.8223 12.3661 99.7002 12.9755 101.004 14.2792C102.308 15.5829 102.917 17.4638 102.721 19.5702C102.692 19.8581 102.721 20.1487 102.806 20.4254C102.89 20.7021 103.028 20.9595 103.212 21.1827C103.396 21.4059 103.622 21.5905 103.878 21.7261C104.133 21.8616 104.413 21.9454 104.701 21.9725H104.909C105.456 21.9727 105.984 21.7685 106.388 21.3999C106.792 21.0314 107.044 20.5251 107.095 19.9804C107.417 16.5468 106.356 13.4179 104.112 11.1708C101.868 8.92372 98.7305 7.8661 95.3027 8.20302C95.0104 8.22322 94.725 8.30171 94.4634 8.43387C94.2018 8.56604 93.9693 8.74919 93.7796 8.97257C93.5898 9.19594 93.4467 9.45502 93.3586 9.73454C93.2705 10.0141 93.2392 10.3084 93.2666 10.6002C93.2939 10.892 93.3794 11.1754 93.5179 11.4336C93.6564 11.6919 93.8452 11.9199 94.0732 12.1041C94.3012 12.2883 94.5637 12.425 94.8453 12.5062C95.1269 12.5875 95.4219 12.6115 95.7129 12.577V12.5624Z" fill="#E76E26"/>
<path d="M36.914 20.8478H36.9521C37.2407 20.8428 37.5255 20.781 37.7901 20.666C38.0548 20.551 38.2943 20.3849 38.4948 20.1774C38.6953 19.9698 38.8529 19.7247 38.9587 19.4562C39.0645 19.1877 39.1164 18.901 39.1113 18.6124C39.0622 16.7327 39.3961 14.8626 40.0927 13.116C40.7893 11.3694 41.8339 9.78281 43.1632 8.45277C44.4924 7.12273 46.0783 6.07706 47.8245 5.37941C49.5707 4.68175 51.4405 4.3467 53.3203 4.39464C53.6088 4.39945 53.8955 4.34738 54.1639 4.2414C54.4324 4.13542 54.6773 3.9776 54.8847 3.77697C55.0922 3.57634 55.258 3.33681 55.3729 3.07206C55.4878 2.80732 55.5494 2.52254 55.5542 2.23399C55.559 1.94545 55.5069 1.65877 55.4009 1.39035C55.295 1.12192 55.1372 0.877002 54.9365 0.669567C54.7359 0.462131 54.4964 0.296245 54.2316 0.181379C53.9669 0.0665126 53.6821 0.00491659 53.3935 0.000107448C50.9243 -0.0576291 48.469 0.386152 46.1763 1.3046C43.8835 2.22306 41.8009 3.59708 40.0544 5.34356C38.3079 7.09005 36.9339 9.17267 36.0154 11.4655C35.097 13.7582 34.6532 16.2135 34.7109 18.6827C34.7194 19.2609 34.9554 19.8124 35.3679 20.2177C35.7803 20.623 36.3358 20.8494 36.914 20.8478Z" fill="#E76E26"/>
<path d="M45.8877 11.1707C43.6523 13.4177 42.583 16.5466 42.9053 19.9802C42.9557 20.525 43.2077 21.0313 43.612 21.3998C44.0163 21.7683 44.5437 21.9726 45.0908 21.9724H45.2988C45.8788 21.9175 46.4132 21.6345 46.7846 21.1857C47.156 20.7368 47.3339 20.1589 47.2793 19.5789C47.083 17.4724 47.6924 15.5916 48.9961 14.2879C50.2998 12.9842 52.1807 12.3748 54.2871 12.5711C54.5828 12.616 54.8846 12.6 55.1739 12.5242C55.4633 12.4484 55.7341 12.3143 55.9698 12.1301C56.2054 11.946 56.4011 11.7157 56.5446 11.4533C56.6882 11.1909 56.7766 10.9019 56.8046 10.6041C56.8326 10.3063 56.7994 10.006 56.7072 9.72141C56.615 9.43687 56.4657 9.17415 56.2684 8.94935C56.0711 8.72454 55.83 8.54238 55.5599 8.41403C55.2897 8.28568 54.9962 8.21383 54.6973 8.2029C51.2695 7.86599 48.1348 8.92653 45.8877 11.1707Z" fill="#E76E26"/>
<path d="M73.5352 64.4531H76.4648C78.2131 64.4531 79.8897 63.7586 81.126 62.5224C82.3622 61.2862 83.0566 59.6096 83.0566 57.8613C83.0566 56.1131 82.3622 54.4364 81.126 53.2002C79.8897 51.964 78.2131 51.2695 76.4648 51.2695H73.5352C71.7869 51.2695 70.1103 51.964 68.8741 53.2002C67.6379 54.4364 66.9434 56.1131 66.9434 57.8613C66.9434 59.6096 67.6379 61.2862 68.8741 62.5224C70.1103 63.7586 71.7869 64.4531 73.5352 64.4531ZM73.5352 55.6641H76.4648C77.0476 55.6641 77.6065 55.8956 78.0185 56.3076C78.4306 56.7197 78.6621 57.2786 78.6621 57.8613C78.6621 58.4441 78.4306 59.003 78.0185 59.415C77.6065 59.8271 77.0476 60.0586 76.4648 60.0586H73.5352C72.9524 60.0586 72.3935 59.8271 71.9815 59.415C71.5694 59.003 71.3379 58.4441 71.3379 57.8613C71.3379 57.2786 71.5694 56.7197 71.9815 56.3076C72.3935 55.8956 72.9524 55.6641 73.5352 55.6641Z" fill="#E76E26"/>
</g>
<defs>
<clipPath id="clip0_275_2348">
<rect width="150" height="150" fill="white"/>
</clipPath>
</defs>
</svg>
